<svg xmlns="http://www.w3.org/2000/svg" width="512" height="512" viewBox="-25 -10 220 220">
	<path fill="none" stroke="#000" stroke-width="36" stroke-linecap="round" d="M33.7,64.3C22.1,77.2,15,94.3,15,113c0,40.1,32.5,72.7,72.7,72.7c40.1,0,72.7-32.5,72.7-72.7c0-18.7-7.1-35.8-18.7-48.7"/>
	<path fill="none" stroke="#FFF" stroke-width="30" stroke-linecap="round" d="M33.7,64.3C22.1,77.2,15,94.3,15,113c0,40.1,32.5,72.7,72.7,72.7c40.1,0,72.7-32.5,72.7-72.7c0-18.7-7.1-35.8-18.7-48.7"/>
	<line fill="none" stroke="#000" stroke-width="36" stroke-linecap="round" x1="87.8" y1="15" x2="87.8" y2="113"/>
	<line fill="none" stroke="#FFFFFF" stroke-width="30" stroke-linecap="round" x1="87.8" y1="15" x2="87.8" y2="113"/>
</svg>
